<svg xmlns="http://www.w3.org/2000/svg" xmlns:xlink="http://www.w3.org/1999/xlink" viewBox="0 0 86.25 83.14"><defs><style>.cls-1{isolation:isolate;}.cls-2{fill:#903f98;}.cls-3,.cls-5,.cls-6,.cls-7{mix-blend-mode:multiply;}.cls-3{fill:url(#linear-gradient);}.cls-4{fill:#e21073;}.cls-5,.cls-7{opacity:0.4;}.cls-5{fill:url(#linear-gradient-2);}.cls-6{fill:url(#linear-gradient-3);}.cls-7{fill:url(#linear-gradient-4);}</style><linearGradient id="linear-gradient" x1="411.43" y1="45.38" x2="429.56" y2="13.98" gradientTransform="translate(479.58 97.17) rotate(180)" gradientUnits="userSpaceOnUse"><stop offset="0.18" stop-color="#808285"/><stop offset="0.63" stop-color="#c8c9ca"/><stop offset="1" stop-color="#fff"/></linearGradient><linearGradient id="linear-gradient-2" x1="9.21" y1="15.59" x2="45.25" y2="78.02" gradientUnits="userSpaceOnUse"><stop offset="0"/><stop offset="0.09" stop-color="#0c0d0d"/><stop offset="0.26" stop-color="#2e2e2e"/><stop offset="0.49" stop-color="#636464"/><stop offset="0.76" stop-color="#adadad"/><stop offset="1" stop-color="#f1f2f2"/></linearGradient><linearGradient id="linear-gradient-3" x1="18.1" y1="31.35" x2="36.23" y2="-0.05" gradientUnits="userSpaceOnUse"><stop offset="0" stop-color="#d1d3d4"/><stop offset="0.17" stop-color="#b7b9bb"/><stop offset="0.42" stop-color="#999b9e"/><stop offset="0.64" stop-color="#87898b"/><stop offset="0.79" stop-color="#808285"/></linearGradient><linearGradient id="linear-gradient-4" x1="402.54" y1="29.62" x2="438.59" y2="92.05" gradientTransform="translate(479.58 97.17) rotate(180)" gradientUnits="userSpaceOnUse"><stop offset="0"/><stop offset="0.09" stop-color="#0d0d0d"/><stop offset="0.26" stop-color="#2e2f2f"/><stop offset="0.5" stop-color="#656565"/><stop offset="0.77" stop-color="#b0b0b0"/><stop offset="1" stop-color="#f1f2f2"/></linearGradient></defs><g class="cls-1"><g id="Layer_2" data-name="Layer 2"><g id="Layer_1-2" data-name="Layer 1"><polygon class="cls-2" points="49.94 83.14 86.25 62.23 49.94 41.53 49.94 83.14"/><polygon class="cls-3" points="49.94 83.14 86.25 62.23 49.94 41.53 49.94 83.14"/><polygon class="cls-4" points="0 20.9 0.01 62.41 36.4 83.14 72.31 62.13 0 20.9"/><polygon class="cls-2" points="36.31 0 0 20.9 36.31 41.61 36.31 0"/><polygon class="cls-5" points="0 20.9 0.01 62.41 36.4 83.14 72.31 62.13 0 20.9"/><polygon class="cls-6" points="36.31 0 0 20.9 36.31 41.61 36.31 0"/><polygon class="cls-4" points="86.25 62.23 86.24 20.72 49.86 0 13.94 21.01 86.25 62.23"/><polygon class="cls-7" points="86.25 62.23 86.24 20.72 49.86 0 13.94 21.01 86.25 62.23"/></g></g></g></svg>