<svg xmlns="http://www.w3.org/2000/svg" xmlns:xlink="http://www.w3.org/1999/xlink" viewBox="0 0 344.07 173.87"><defs><style>.cls-1{isolation:isolate;}.cls-2{fill:#231f20;}.cls-3{fill:#414042;}.cls-4{fill:#903f98;}.cls-5,.cls-7,.cls-8,.cls-9{mix-blend-mode:multiply;}.cls-5{fill:url(#linear-gradient);}.cls-6{fill:#e21073;}.cls-7,.cls-9{opacity:0.4;}.cls-7{fill:url(#linear-gradient-2);}.cls-8{fill:url(#linear-gradient-3);}.cls-9{fill:url(#linear-gradient-4);}</style><linearGradient id="linear-gradient" x1="555.09" y1="-383.75" x2="573.22" y2="-415.15" gradientTransform="translate(752.03 -331.97) rotate(180)" gradientUnits="userSpaceOnUse"><stop offset="0.18" stop-color="#808285"/><stop offset="0.63" stop-color="#c8c9ca"/><stop offset="1" stop-color="#fff"/></linearGradient><linearGradient id="linear-gradient-2" x1="137.99" y1="15.59" x2="174.04" y2="78.02" gradientUnits="userSpaceOnUse"><stop offset="0"/><stop offset="0.09" stop-color="#0c0d0d"/><stop offset="0.26" stop-color="#2e2e2e"/><stop offset="0.49" stop-color="#636464"/><stop offset="0.76" stop-color="#adadad"/><stop offset="1" stop-color="#f1f2f2"/></linearGradient><linearGradient id="linear-gradient-3" x1="146.88" y1="31.35" x2="165.01" y2="-0.05" gradientUnits="userSpaceOnUse"><stop offset="0" stop-color="#d1d3d4"/><stop offset="0.17" stop-color="#b7b9bb"/><stop offset="0.42" stop-color="#999b9e"/><stop offset="0.64" stop-color="#87898b"/><stop offset="0.79" stop-color="#808285"/></linearGradient><linearGradient id="linear-gradient-4" x1="546.2" y1="-399.51" x2="582.25" y2="-337.08" gradientTransform="translate(752.03 -331.97) rotate(180)" gradientUnits="userSpaceOnUse"><stop offset="0"/><stop offset="0.09" stop-color="#0d0d0d"/><stop offset="0.26" stop-color="#2e2f2f"/><stop offset="0.5" stop-color="#656565"/><stop offset="0.77" stop-color="#b0b0b0"/><stop offset="1" stop-color="#f1f2f2"/></linearGradient></defs><g class="cls-1"><g id="Layer_2" data-name="Layer 2"><g id="Layer_1-2" data-name="Layer 1"><path class="cls-2" d="M74.43,156h1.72v8h10.2v-8h1.73v17.57H86.35v-8H76.15v8H74.43Z"/><path class="cls-2" d="M97.68,156h9.9v1.55H99.4V164h6.68v1.55H99.4V172H108v1.55H97.68Z"/><path class="cls-2" d="M125.13,168h-7.08l-2,5.6h-1.82L120.68,156h1.85L129,173.57h-1.83Zm-3.55-10.14s-.38,1.45-.68,2.27l-2.35,6.37h6l-2.3-6.37c-.3-.82-.67-2.27-.67-2.27Z"/><path class="cls-2" d="M136.35,156h1.73v16h8.15v1.55h-9.88Z"/><path class="cls-2" d="M156,157.55h-6.32V156h14.34v1.55h-6.3v16H156Z"/><path class="cls-2" d="M171.28,156H173v8h10.2v-8h1.73v17.57H183.2v-8H173v8h-1.72Z"/><path class="cls-2" d="M202.18,155.7A8.9,8.9,0,0,1,208.5,158l-.92,1.27a8.26,8.26,0,0,0-5.35-1.95,7,7,0,0,0-7.08,7.35c0,4.2,2.95,7.62,7.13,7.62a8.22,8.22,0,0,0,5.7-2.35l1,1.23a9.39,9.39,0,0,1-6.73,2.72c-5.2,0-8.89-4.07-8.89-9.2A8.71,8.71,0,0,1,202.18,155.7Z"/><path class="cls-2" d="M225.9,168h-7.07l-2,5.6H215L221.45,156h1.85l6.45,17.57h-1.82Zm-3.55-10.14s-.37,1.45-.67,2.27l-2.35,6.37h6l-2.3-6.37c-.3-.82-.68-2.27-.68-2.27Z"/><path class="cls-2" d="M237.13,156h5.2a7.79,7.79,0,0,1,3.3.48,5.11,5.11,0,0,1-.68,9.27v.05a5.38,5.38,0,0,1,.45.7l3.83,7.07h-2l-4-7.4h-4.42v7.4h-1.73Zm5.9,8.62a3.28,3.28,0,0,0,3.47-3.57,3.24,3.24,0,0,0-1.6-3.07,5,5,0,0,0-2.5-.43h-3.54v7.07Z"/><path class="cls-2" d="M257.33,156h9.9v1.55h-8.18V164h6.68v1.55h-6.68V172h8.63v1.55H257.33Z"/><path class="cls-3" d="M3.22,104.32a1,1,0,0,0-1.09-1.09H0v-5.5H6.35c2.38,0,3.37,1,3.37,3.37v12.23H25.23V101.1c0-2.33,1.05-3.37,3.38-3.37H35v5.5H32.82a1,1,0,0,0-1.09,1.09v29.56h-6.5V119.11H9.72v14.77H3.22Z"/><path class="cls-3" d="M47.5,108c7.24,0,11.21,5.31,11.21,12,0,.74-.15,2.33-.15,2.33H41.11a7.26,7.26,0,0,0,7.58,6.79,11.49,11.49,0,0,0,7.09-2.82l2.63,4.36a15.38,15.38,0,0,1-10.16,3.82c-8.38,0-13.59-6-13.59-13.24C34.66,113.46,39.92,108,47.5,108Zm4.76,10c-.1-3-2.18-5.11-4.76-5.11A6.06,6.06,0,0,0,41.3,118Z"/><path class="cls-3" d="M68.89,121.09l-4.16-6.3c-.5-.74-.9-.84-1.94-.84H61V108.6h4.41c2.08,0,3,.44,4.12,2.38L72,115.14c.34.65.79,1.64.79,1.64h.1s.44-1,.79-1.64L76.13,111c1.14-1.94,2-2.38,4.11-2.38h4.37V114H82.82c-1,0-1.44.1-1.93.84l-4.21,6.3L85,133.88H78l-4.41-7a8,8,0,0,1-.69-1.34h-.1s-.4.8-.75,1.34l-4.36,7h-7Z"/><path class="cls-3" d="M91.05,103.23h-5.4a1,1,0,0,0-1.1,1.09v1.42H78.85V100.9c0-2.33.8-3.17,3.18-3.17h24.54c2.38,0,3.17.84,3.17,3.17v4.85l-5.68,0,0-1.4a1,1,0,0,0-1.09-1.09H97.54v30.65H91.05Z"/><path class="cls-3" d="M107.2,115a1,1,0,0,0-1.09-1.09h-2V108.6h5.75c2.23,0,3.37.94,3.37,3.07v1.49a11.31,11.31,0,0,1-.1,1.58h.1c1.14-3.61,4.17-6.49,8-6.49a7.92,7.92,0,0,1,1.14.1v6.2a11,11,0,0,0-1.53-.1,7.12,7.12,0,0,0-6.9,5.3,15.62,15.62,0,0,0-.54,4.12v10H107.2Z"/><path class="cls-3" d="M138.68,118h.8v-.2c0-3.62-1.44-5-4.66-5-1.14,0-3.38.3-3.38,1.69v1.33h-5.85v-2.67c0-4.71,6.65-5.21,9.28-5.21,8.42,0,10.9,4.41,10.9,10.07v9.42a1,1,0,0,0,1.09,1.09h2v5.3h-5.66c-2.33,0-3.22-1.29-3.22-2.78,0-.64.05-1.09.05-1.09h-.1a8.22,8.22,0,0,1-7.63,4.47c-4.51,0-8.63-2.83-8.63-7.89C123.66,118.66,134.57,118,138.68,118Zm-4.86,11.55c3.38,0,5.76-3.57,5.76-6.65v-.59h-1.1c-3.27,0-8.47.45-8.47,4C130,128,131.25,129.57,133.82,129.57Z"/><path class="cls-3" d="M153,115a1,1,0,0,0-1.09-1.09h-2V108.6h5.8c2.23,0,3.32,1,3.32,2.82v.75a7,7,0,0,1-.1,1.09h.1a9.73,9.73,0,0,1,8.92-5.26c5.6,0,8.83,2.93,8.83,9.62v9.87a1,1,0,0,0,1.09,1.09h2v5.3h-6c-2.38,0-3.37-1-3.37-3.37v-11.6c0-3.07-.79-5.16-4-5.16a6.93,6.93,0,0,0-6.79,5.16,10.57,10.57,0,0,0-.49,3.37v11.6H153Z"/><path class="cls-3" d="M185.32,125.85s3.22,3.72,7.54,3.72c1.93,0,3.42-.8,3.42-2.48,0-3.57-13.34-3.52-13.34-11.7,0-5.06,4.56-7.39,9.82-7.39,3.42,0,8.87,1.14,8.87,5.26v2.62h-5.55v-1.23c0-1.19-1.79-1.79-3.17-1.79-2.23,0-3.77.79-3.77,2.28,0,4,13.43,3.17,13.43,11.6,0,4.76-4.21,7.74-9.71,7.74A13.86,13.86,0,0,1,182.35,130Z"/><path class="cls-3" d="M208,113.6h-3.13v-5H208v-.75c0-8.28,6.79-9.37,10.31-9.37a13.37,13.37,0,0,1,2.13.15V104a7.83,7.83,0,0,0-1.29-.1c-1.78,0-4.86.44-4.86,4.11v.6h5.41v5h-5.41v20.28H208Z"/><path class="cls-3" d="M234.55,108c7.73,0,13.88,5.5,13.88,13.24s-6.15,13.24-13.88,13.24-13.83-5.46-13.83-13.24S226.86,108,234.55,108Zm0,21.12a7.89,7.89,0,1,0-7.49-7.88A7.52,7.52,0,0,0,234.55,129.12Z"/><path class="cls-3" d="M253.41,115a1,1,0,0,0-1.09-1.09h-2V108.6h5.75c2.23,0,3.37.94,3.37,3.07v1.49a11.31,11.31,0,0,1-.1,1.58h.1c1.14-3.61,4.17-6.49,8-6.49a7.92,7.92,0,0,1,1.14.1v6.2a11,11,0,0,0-1.53-.1,7.11,7.11,0,0,0-6.89,5.3,15.21,15.21,0,0,0-.55,4.12v10h-6.25Z"/><path class="cls-3" d="M274.61,115a1,1,0,0,0-1.09-1.09h-2V108.6h5.8c2.23,0,3.32,1,3.32,2.82v.75c0,.54-.05,1.09-.05,1.09h.1a9.41,9.41,0,0,1,8.18-5.26c3.82,0,6.3,1.79,7.39,5.21h.1A9.76,9.76,0,0,1,305,108c5.26,0,8.28,3,8.28,9.62v9.87a1,1,0,0,0,1.09,1.09h1.94v5.3h-5.95c-2.38,0-3.37-1-3.37-3.37v-11.7c0-2.88-.55-5.06-3.47-5.06-3.13,0-5.36,2.63-6,5.8a11,11,0,0,0-.4,3.23v11.1h-6.3V118.81c0-2.73-.39-5.06-3.42-5.06s-5.3,2.63-6.09,5.85a12.88,12.88,0,0,0-.4,3.18v11.1h-6.25Z"/><path class="cls-3" d="M333.91,118h.79v-.2c0-3.62-1.44-5-4.66-5-1.14,0-3.37.3-3.37,1.69v1.33h-5.85v-2.67c0-4.71,6.64-5.21,9.27-5.21,8.43,0,10.91,4.41,10.91,10.07v9.42a1,1,0,0,0,1.09,1.09h2v5.3h-5.65c-2.33,0-3.23-1.29-3.23-2.78,0-.64.05-1.09.05-1.09h-.1a8.22,8.22,0,0,1-7.63,4.47c-4.51,0-8.63-2.83-8.63-7.89C318.88,118.66,329.79,118,333.91,118Zm-4.86,11.55c3.37,0,5.75-3.57,5.75-6.65v-.59h-1.09c-3.27,0-8.48.45-8.48,4C325.23,128,326.47,129.57,329.05,129.57Z"/><polygon class="cls-4" points="178.72 83.14 215.04 62.23 178.72 41.53 178.72 83.14"/><polygon class="cls-5" points="178.72 83.14 215.04 62.23 178.72 41.53 178.72 83.14"/><polygon class="cls-6" points="128.79 20.9 128.79 62.41 165.18 83.14 201.1 62.13 128.79 20.9"/><polygon class="cls-4" points="165.1 0 128.78 20.9 165.1 41.61 165.1 0"/><polygon class="cls-7" points="128.79 20.9 128.79 62.41 165.18 83.14 201.1 62.13 128.79 20.9"/><polygon class="cls-8" points="165.1 0 128.78 20.9 165.1 41.61 165.1 0"/><polygon class="cls-6" points="215.03 62.23 215.03 20.72 178.64 0 142.72 21.01 215.03 62.23"/><polygon class="cls-9" points="215.03 62.23 215.03 20.72 178.64 0 142.72 21.01 215.03 62.23"/></g></g></g></svg>